<svg id="LOGO_QORA" data-name="LOGO QORA" xmlns="http://www.w3.org/2000/svg" width="1000" height="712" viewBox="0 0 1000 712">
  <defs>
    <style>
      .cls-1, .cls-2 {
        fill-rule: evenodd;
      }

      .cls-2 {
        fill: #fff;
      }
    </style>
  </defs>
  <path id="m_b" data-name="m b" class="cls-1" d="M821.692,283.783c-15.6,8.781-21.561,11-27.692,25.217h0c-0.019-.047-7.308-16.993-21.708-25.551s-31.869-12.833-52.4-12.833q-29.2,0-50.6,10.833C655.023,288.673,649.4,291.333,643,304v-2l-0.309-29.717h-27.2v175h28.4v-92q0-20,8.6-34.167a55.512,55.512,0,0,1,24.6-21.667q15.993-7.5,37.2-7.5,28.8,0,44.8,14.167t16,41.833v99.334L803,446l1-91c0-13.333,2.354-24.436,8.092-33.884a55.7,55.7,0,0,1,24.4-21.667q15.8-7.5,37.4-7.5,28.8,0,44.6,14.167C929.023,315.564,934,329.557,934,348v98h29V346c0-16.885-3.846-31.269-10.908-42.384a64.215,64.215,0,0,0-29.6-24.833q-19-8.165-44.6-8.167Q845.089,270.616,821.692,283.783ZM118,356h0m513,92h0Z"/>
  <path class="cls-1" d="M361,0.009c199.375,0,361,159.387,361,356s-161.625,356-361,356S0,552.623,0,356.009,161.625,0.009,361,.009Z"/>
  <path id="nor" class="cls-2" d="M150.346,279.449C135.677,286.673,129.663,288.333,123,301V270H95V446h29l-0.054-92.717q0-20,9-34.167t25.6-21.667q16.593-7.5,39-7.5,30,0,46.6,14.167t16.6,41.833L261,446h28l0.146-102.384q0-25.327-11-42a66.3,66.3,0,0,0-30.4-24.833q-19.407-8.165-45-8.167Q172.343,268.616,150.346,279.449Zm356,156q24.393-11.5,38.2-31.666t13.8-46.167q0-26.328-13.8-46.333t-38-31.334q-24.207-11.328-55.4-11.333-30.807,0-54.8,11.333t-38,31.334q-14.007,20-14,46.333,0,26,14,46.167t38.2,31.666q24.2,11.5,54.6,11.5Q481.943,446.949,506.346,435.449Zm-94.8-18a69.181,69.181,0,0,1-28-24q-10.407-15.5-10.4-35.833,0-20.664,10.4-36a69.682,69.682,0,0,1,28-23.833q17.6-8.5,40-8.5t40,8.5a68.282,68.282,0,0,1,27.8,23.833q10.2,15.336,10.2,36,0,20.336-10.2,35.833a67.807,67.807,0,0,1-27.8,24q-17.607,8.5-40.4,8.5Q429.142,425.949,411.546,417.449ZM644,446l0.346-90.051q0-31,18.8-47.833c12.531-11.219,23.862-15.833,46-15.833a31.567,31.567,0,0,1,3.2.166,29.73,29.73,0,0,0,3.2.167L712,270c-20.537,0-28.192,2.116-42.054,9.116S649.862,289.667,644,303l-1,2V270H616V446h28Z"/>
</svg>
